<?xml version="1.0" encoding="utf-8"?>
<!-- Generator: Adobe Illustrator 25.0.0, SVG Export Plug-In . SVG Version: 6.00 Build 0)  -->
<svg version="1.1"
	 id="svg96" xmlns:cc="http://creativecommons.org/ns#" xmlns:dc="http://purl.org/dc/elements/1.1/" xmlns:rdf="http://www.w3.org/1999/02/22-rdf-syntax-ns#" xmlns:svg="http://www.w3.org/2000/svg"
	 xmlns="http://www.w3.org/2000/svg" xmlns:xlink="http://www.w3.org/1999/xlink" x="0px" y="0px" viewBox="0 0 841.9 595.3"
	 style="enable-background:new 0 0 841.9 595.3;" xml:space="preserve">
<style type="text/css">
	.st0{fill-rule:evenodd;clip-rule:evenodd;fill:#E8BF49;}
	.st1{fill-rule:evenodd;clip-rule:evenodd;fill:#013480;}
	.st2{fill-rule:evenodd;clip-rule:evenodd;fill:#4D4D4B;}
</style>
<g id="Layer1001">
	<path id="path2" class="st0" d="M454.7,148.7c0,19.9-16.2,36.1-36.1,36.1c-19.9,0-36.1-16.2-36.1-36.1c0-19.9,16.2-36.1,36.1-36.1
		C438.5,112.6,454.7,128.8,454.7,148.7L454.7,148.7z"/>
	<path id="path4" class="st1" d="M426.5,225.4c0-0.5,0.3-36,0.3-36s-6.4,1-8.7,1c-2.3,0-8.8-1.1-8.8-1.1l-0.2,36.5l-22.7,6.9
		l-0.1,1.6l4.3,4l0.6,3.3l56,0.1v-3.1l3.5-5.4v-1.7C450.8,231.4,426.5,225.9,426.5,225.4L426.5,225.4z"/>
	<path id="path6" class="st1" d="M467.3,158.2l50.8,1.3l4.5,0.3l-1.7-0.2l1,0l-1.6-0.1l-61.6-7.4c0.1-0.8,0.1-1.6,0.1-2.4l49.8-12.5
		l-49.4,9.1v0l49.3-9.1l-50.3,4c-0.1-0.7-0.3-1.3-0.5-2l55.9-24.8l-58.1,18.6c-0.5-1.2-1.1-2.3-1.7-3.4l50.8-36.3l-1.5-2L450.9,125
		c-1.5-2-3.2-3.9-5.1-5.6c-0.4-0.4-0.9-0.8-1.3-1.2c3.4-5.9,28.9-49.8,33.4-57.3c-4.2,6.7-27.2,42.9-35.4,55.7l0,0l35.8-56.5
		c-0.1,0.2-0.3,0.3-0.5,0.6c0.4-0.7,0.6-1.3,0.7-1.3l-2.8-0.7l-37,55.3c-1.3-0.7-2.7-1.4-4.1-1.9l10-33.8l-5.5,0.2l-10.5,31.6
		l-0.2,0l2.2-6.7l6.8-54.1c-0.4-0.1-4.5-0.9-4.5-0.9l-10.7,60.7c-1.4-0.1-2.8-0.4-4.2-0.3l-10.3-66.1h-4.7l8.9,66.7l0,0.1l-8.9-66.3
		L410,110c-0.8,0.2-1.6,0.4-2.4,0.7l-24.8-57.9l-3.5,0.8l23.1,59.1c-2.1,1-4.1,2.1-6,3.4l-30.1-33.6l-5,0.7l29.1,37.9
		c-1.2,1.2-2.3,2.6-3.4,4c-0.9,1.1-1.6,2.3-2.4,3.5c-16.4-7.8-61.8-29.3-60.9-28.7c0.5,0.3,12,6.5,25.3,13.5l-25.5-13.4l58.9,32.8
		c-0.2,0.4-0.4,0.9-0.6,1.3l-28.6-7.1l27.4,10.6l0,0.1l-28.1-10.9l27.6,12.9c-0.5,2.1-0.8,4.3-1,6.5c-15.2,0.1-57.6,0.4-65.4,0.5
		c-0.9,0-1.4,0-1.2,0c1.2,0.3,50.2,4.6,66.7,6c0.1,1,0.2,2.1,0.4,3.1c-11.3,3.5-40.4,12.3-45.7,13.9l-0.4,0.1l0.3-0.1
		c-0.4,0.1-0.7,0.2-0.7,0.2l2.1-0.5l45.8-8.2c0.7,2.1,1.5,4,2.5,6l-20.8,12.5l3.3,0.1c0,0,9.9-4.5,19.7-8.9c0.3,0.5,0.7,1,1,1.5
		l-40.6,36.6l-2.7,2.1l1.8-1.3l-2,1.8l5.1-4.1l42.2-30.9c1.2,1.2,2.4,2.4,3.8,3.4l-32.9,56.4l37.6-53.1c0.4,0.3,0.9,0.5,1.3,0.7
		L382.9,228l3.6-0.1l19.7-41c6.9,2.3,14.5,2.7,21.7,1.1l2.6,9l0.1,0.9h5.1l-2.3-11.3c1.5-0.6,2.9-1.3,4.3-2.1
		c8.4,12.7,31.5,47.3,31.5,48v0l3.1-0.9l-27.7-51.8c2.4-2,4.6-4.4,6.5-6.9l60.7,31.1L454,168c0.3-0.6,0.6-1.1,0.9-1.7l50.6,18.5
		l-48.4-24c0.4-1.4,0.8-2.9,1.1-4.3L467.3,158.2z M457,152L457,152l-3.1-0.4l-0.7,3.9l3.2,0.6c-0.3,1.3-0.6,2.6-1,3.9l-8.3-4.1
		l-1.7,3.9l-1.9,2.3l9.7,3.5c-0.2,0.5-0.5,0.9-0.7,1.4l-1.5-0.9l-1.6,2.7l-1.2,2.5l1.2,0.6c-1.7,2.3-3.7,4.4-5.9,6.3l-1.8,1
		l-7.1,0.5c0,0,0.8,1.2,2.1,3.2c-1.2,0.6-2.5,1.2-3.8,1.7l-2.4-11.3l-2.2-0.3l-2.2-0.1l0,0.3h0l0-0.3l-1.6,3.7l2.8,9.7
		c-5.5,1.2-11.3,1.2-16.8,0c-1.2-0.3-2.4-0.6-3.6-1l4.2-8.8l-3.2-5.6l-2.7,0.5l-4.5,11.3c-0.3-0.2-0.6-0.3-0.9-0.5l1.4-1.9l-1.4-2.6
		l-3.8-0.6l-1,1.7c-1.3-1.1-2.6-2.3-3.8-3.5l-0.3-1.6l-2-3.1l-0.9,0.9c-0.2-0.3-0.5-0.7-0.7-1c8.7-3.9,16.7-7.6,16.9-7.6
		c0.5-0.2-0.3-6.2-0.3-6.2l-2.1-0.2L385,166.4l0-0.1c-0.9-1.7-1.6-3.5-2.2-5.3l1.9-0.3l0.8-2.2l-1.3-4c-0.1,0-1.1,0.4-2.8,0.9
		c-0.1-0.8-0.2-1.6-0.3-2.5c2.2,0.2,3.6,0.3,3.6,0.3l0.3-3l-0.3-4c0,0-1.3,0-3.6,0c0.1-1.9,0.4-3.8,0.8-5.7l13.5,6.3
		c0.5,0.2,6.4-1.1,6.4-1.1l-19.3-7.5l0,0l19.3,7.5l0.3-6.7l-18.4-4.6c0.1-0.3,0.2-0.6,0.4-0.9l1.6,0.9l3.7,0.1l-0.1,0l1.2-3.2
		c0,0-1.6-0.7-4.2-2c1.5-2.5,3.2-4.8,5.2-6.8l6.9,9l4.5-0.7l-0.7-8.4l-4.5-5c1.7-1.2,3.6-2.2,5.5-3.1l2.4,6l3.4-0.7l1-3.8l-1.5-3.6
		c0.3-0.1,0.6-0.2,1-0.3c0.3-0.1,0.6-0.2,1-0.2l0,0.4l2.2,2.8l-0.4-2.5h0l0.4,2.4l6.1-1.1l-0.4-2.9c1.2,0,2.4-0.1,3.6,0l-0.7,4.2
		l2.1,2.3l3.1-0.9l1.5-4.7l0.2,0l-4.6,13.9l0.7,2.5l5.5,0.7l4.5-15.1c1.2,0.5,2.4,1.1,3.6,1.8l-2.2,3.3l4.2,2.2l1.9-3l0,0
		c-1.2,1.9-1.9,3-1.9,3l3.5-1.8c2.4,1.9,4.5,4.1,6.3,6.5l-2.7,1.7l-0.6,2.3l2.4,3.8l4-2.9c0.5,1,1,1.9,1.4,2.9l-1.6,0.5l1.8,5
		l1.9,0.6c0.1,0.5,0,1,0.1,1.5l-8.8,0.7v6.2l0.2,0.1l8.3,2.1l1.2-0.3C457,150.9,457.1,151.4,457,152L457,152z M457.2,146.7
		L457.2,146.7l-0.4,0.1l0.5-0.1L457.2,146.7z"/>
	<path id="path8" class="st1" d="M424.1,154.3l-1.2,6.7l14.9,15.5l4.4-0.2l-13-21.1L424.1,154.3z"/>
	<path id="path10" class="st1" d="M426.2,142.1v3l4.5,0.7l15.1-23.3l-4.5-0.9L426.2,142.1z"/>
	<path id="path12" class="st1" d="M440.3,121.7l0.3,0.1l0,0L440.3,121.7z"/>
</g>
<g id="Layer1002">
	<path id="path15" class="st2" d="M288.4,479.9l0.1,0.1c1.5,0.7,2.2,1.9,2.2,3.6c0,1.4-0.5,2.5-1.4,3.2c-0.9,0.7-2.2,1.1-3.7,1.1
		h-5.5c-0.2,0-0.4-0.1-0.4-0.4v-14.8c0-0.2,0.1-0.4,0.4-0.4h5.3c1.6,0,2.9,0.3,3.7,1c0.9,0.7,1.3,1.7,1.3,3.2
		C290.5,478.1,289.8,479.2,288.4,479.9L288.4,479.9z M282.4,474.7L282.4,474.7v4.1c0,0.1,0,0.1,0.1,0.1h3c0.8,0,1.4-0.2,1.9-0.6
		c0.5-0.4,0.7-0.9,0.7-1.6c0-0.7-0.2-1.2-0.7-1.6c-0.5-0.4-1.1-0.6-1.9-0.6h-3C282.4,474.6,282.4,474.6,282.4,474.7L282.4,474.7z
		 M287.5,485.1L287.5,485.1c0.5-0.4,0.7-1,0.7-1.7c0-0.7-0.2-1.3-0.7-1.7c-0.5-0.4-1.1-0.6-1.9-0.6h-3.1c-0.1,0-0.1,0-0.1,0.1v4.3
		c0,0.1,0,0.1,0.1,0.1h3.2C286.4,485.7,287,485.5,287.5,485.1L287.5,485.1z"/>
	<path id="path17" class="st2" d="M304.8,487.5c-0.9-0.5-1.5-1.1-2-1.9c-0.5-0.8-0.7-1.8-0.7-2.9v-5.1c0-1.1,0.2-2,0.7-2.8
		c0.5-0.8,1.1-1.5,2-1.9c0.9-0.5,1.8-0.7,2.9-0.7c1.1,0,2.1,0.2,3,0.7c0.9,0.5,1.5,1.1,2,1.9c0.5,0.8,0.7,1.8,0.7,2.8v5.1
		c0,1.1-0.2,2-0.7,2.9c-0.5,0.8-1.1,1.5-2,1.9c-0.9,0.5-1.8,0.7-3,0.7C306.6,488.1,305.6,487.9,304.8,487.5L304.8,487.5z M310,485.1
		L310,485.1c0.6-0.6,0.8-1.3,0.8-2.3v-5.2c0-1-0.3-1.7-0.8-2.3c-0.6-0.6-1.3-0.9-2.2-0.9c-0.9,0-1.7,0.3-2.2,0.9
		c-0.6,0.6-0.8,1.3-0.8,2.3v5.2c0,0.9,0.3,1.7,0.8,2.3c0.6,0.6,1.3,0.9,2.2,0.9C308.7,485.9,309.4,485.6,310,485.1z"/>
	<path id="path19" class="st2" d="M325.1,487.6v-14.8c0-0.2,0.1-0.4,0.4-0.4h1.9c0.2,0,0.4,0.1,0.4,0.2l3.5,5.6l0.1,0.1l0.1-0.1
		l3.5-5.6c0.1-0.2,0.2-0.2,0.4-0.2h1.9c0.2,0,0.4,0.1,0.4,0.4v14.8c0,0.2-0.1,0.4-0.4,0.4h-1.9c-0.2,0-0.4-0.1-0.4-0.4v-10.5
		l-0.1-0.1l-0.1,0.1l-2.6,4.3c-0.1,0.2-0.2,0.2-0.4,0.2H331c-0.2,0-0.4-0.1-0.4-0.2l-2.6-4.3l-0.1-0.1l-0.1,0.1v10.5
		c0,0.2-0.1,0.4-0.4,0.4h-1.9C325.3,487.9,325.1,487.8,325.1,487.6z"/>
	<path id="path21" class="st2" d="M358.2,479.9l0.1,0.1c1.5,0.7,2.2,1.9,2.2,3.6c0,1.4-0.5,2.5-1.4,3.2c-0.9,0.7-2.2,1.1-3.7,1.1
		h-5.5c-0.2,0-0.4-0.1-0.4-0.4v-14.8c0-0.2,0.1-0.4,0.4-0.4h5.3c1.6,0,2.9,0.3,3.7,1c0.9,0.7,1.3,1.7,1.3,3.2
		C360.3,478.1,359.6,479.2,358.2,479.9L358.2,479.9z M352.1,474.7L352.1,474.7v4.1c0,0.1,0,0.1,0.1,0.1h3c0.8,0,1.4-0.2,1.9-0.6
		c0.5-0.4,0.7-0.9,0.7-1.6c0-0.7-0.2-1.2-0.7-1.6c-0.5-0.4-1.1-0.6-1.9-0.6h-3C352.2,474.6,352.1,474.6,352.1,474.7L352.1,474.7z
		 M357.3,485.1L357.3,485.1c0.5-0.4,0.7-1,0.7-1.7c0-0.7-0.2-1.3-0.7-1.7c-0.5-0.4-1.1-0.6-1.9-0.6h-3.1c-0.1,0-0.1,0-0.1,0.1v4.3
		c0,0.1,0,0.1,0.1,0.1h3.2C356.2,485.7,356.8,485.5,357.3,485.1L357.3,485.1z"/>
	<path id="path23" class="st2" d="M372.3,487.6v-14.8c0-0.2,0.1-0.4,0.4-0.4h1.9c0.2,0,0.4,0.1,0.4,0.4v14.8c0,0.2-0.1,0.4-0.4,0.4
		h-1.9C372.4,487.9,372.3,487.8,372.3,487.6z"/>
	<path id="path25" class="st2" d="M387,487.6v-14.8c0-0.2,0.1-0.4,0.4-0.4h1.8c0.2,0,0.4,0.1,0.4,0.2l6.2,10.2l0.1,0.1l0.1-0.1v-10
		c0-0.2,0.1-0.4,0.4-0.4h1.9c0.2,0,0.4,0.1,0.4,0.4v14.8c0,0.2-0.1,0.4-0.4,0.4h-1.8c-0.2,0-0.4-0.1-0.4-0.2l-6.2-10.2l-0.1-0.1
		l-0.1,0.1l0,10.1c0,0.2-0.1,0.4-0.4,0.4h-1.8C387.1,487.9,387,487.8,387,487.6L387,487.6z"/>
	<path id="path27" class="st2" d="M419.4,472.4h1.9c0.2,0,0.4,0.1,0.4,0.4v14.8c0,0.2-0.1,0.4-0.4,0.4h-1.9c-0.2,0-0.4-0.1-0.4-0.4
		v-6.2c0-0.1,0-0.1-0.1-0.1h-5.6c-0.1,0-0.1,0-0.1,0.1v6.2c0,0.2-0.1,0.4-0.4,0.4H411c-0.2,0-0.4-0.1-0.4-0.4v-14.8
		c0-0.2,0.1-0.4,0.4-0.4h1.9c0.2,0,0.4,0.1,0.4,0.4v6.1c0,0.1,0,0.1,0.1,0.1h5.6c0.1,0,0.1,0,0.1-0.1v-6.1
		C419.1,472.5,419.2,472.4,419.4,472.4z"/>
	<path id="path29" class="st2" d="M443.1,487.6l-0.7-2.3c0-0.1-0.1-0.1-0.2-0.1h-5.8c-0.1,0-0.1,0-0.2,0.1l-0.7,2.3
		c-0.1,0.2-0.2,0.3-0.4,0.3h-2c-0.1,0-0.2,0-0.3-0.1c-0.1-0.1-0.1-0.2,0-0.3l4.8-14.9c0.1-0.2,0.2-0.3,0.4-0.3h2.6
		c0.2,0,0.3,0.1,0.4,0.3l4.8,14.9l0,0.1c0,0.2-0.1,0.3-0.3,0.3h-2C443.3,487.9,443.1,487.8,443.1,487.6L443.1,487.6z M437,483.2
		L437,483.2h4.5c0.1,0,0.1-0.1,0.1-0.2l-2.3-7.6l-0.1-0.1l-0.1,0.1l-2.3,7.6C436.9,483.2,437,483.2,437,483.2z"/>
	<path id="path31" class="st2" d="M458.1,487.5c-0.9-0.4-1.5-0.9-2-1.6c-0.5-0.7-0.7-1.5-0.7-2.3v-0.5c0-0.2,0.1-0.4,0.4-0.4h1.8
		c0.2,0,0.4,0.1,0.4,0.3v0.4c0,0.7,0.3,1.2,0.9,1.7c0.6,0.5,1.4,0.7,2.4,0.7c0.9,0,1.6-0.2,2-0.6c0.5-0.4,0.7-0.9,0.7-1.5
		c0-0.4-0.1-0.8-0.4-1.1c-0.3-0.3-0.6-0.6-1.1-0.8c-0.5-0.2-1.2-0.5-2.1-0.9c-1.1-0.4-1.9-0.7-2.6-1.1c-0.7-0.3-1.2-0.8-1.6-1.4
		c-0.4-0.6-0.7-1.3-0.7-2.2c0-1.3,0.5-2.3,1.4-3.1c0.9-0.8,2.2-1.1,3.8-1.1c1.1,0,2.1,0.2,2.9,0.6c0.8,0.4,1.5,0.9,2,1.6
		c0.5,0.7,0.7,1.5,0.7,2.4v0.3c0,0.2-0.1,0.4-0.4,0.4h-1.8c-0.1,0-0.2,0-0.3-0.1c-0.1,0-0.1-0.1-0.1-0.2v-0.2c0-0.7-0.3-1.3-0.9-1.8
		c-0.6-0.5-1.4-0.7-2.4-0.7c-0.8,0-1.4,0.2-1.9,0.5c-0.4,0.3-0.7,0.8-0.7,1.4c0,0.4,0.1,0.8,0.4,1.1c0.2,0.3,0.6,0.5,1.1,0.8
		c0.5,0.2,1.2,0.5,2.2,0.9c1.1,0.4,1.9,0.8,2.5,1.1c0.6,0.3,1.2,0.8,1.6,1.4c0.5,0.6,0.7,1.3,0.7,2.2c0,0.9-0.2,1.6-0.7,2.3
		c-0.4,0.7-1.1,1.2-1.9,1.5c-0.8,0.4-1.8,0.5-2.9,0.5C460,488.1,459,487.9,458.1,487.5L458.1,487.5z"/>
	<path id="path33" class="st2" d="M490.5,482v-1.5c0-0.2,0.1-0.4,0.4-0.4h6.8c0.2,0,0.4,0.1,0.4,0.4v1.5c0,0.2-0.1,0.4-0.4,0.4h-6.8
		C490.6,482.3,490.5,482.2,490.5,482z"/>
	<path id="path35" class="st2" d="M524.6,487.5c-0.9-0.4-1.5-0.9-2-1.6c-0.5-0.7-0.7-1.5-0.7-2.3v-0.5c0-0.2,0.1-0.4,0.4-0.4h1.8
		c0.2,0,0.4,0.1,0.4,0.3v0.4c0,0.7,0.3,1.2,0.9,1.7c0.6,0.5,1.4,0.7,2.4,0.7c0.9,0,1.6-0.2,2-0.6c0.5-0.4,0.7-0.9,0.7-1.5
		c0-0.4-0.1-0.8-0.4-1.1c-0.3-0.3-0.6-0.6-1.1-0.8c-0.5-0.2-1.2-0.5-2.1-0.9c-1.1-0.4-1.9-0.7-2.6-1.1c-0.7-0.3-1.2-0.8-1.6-1.4
		c-0.4-0.6-0.7-1.3-0.7-2.2c0-1.3,0.5-2.3,1.4-3.1c0.9-0.8,2.2-1.1,3.8-1.1c1.1,0,2.1,0.2,2.9,0.6c0.9,0.4,1.5,0.9,2,1.6
		c0.5,0.7,0.7,1.5,0.7,2.4v0.3c0,0.2-0.1,0.4-0.4,0.4h-1.8c-0.1,0-0.2,0-0.3-0.1c-0.1,0-0.1-0.1-0.1-0.2v-0.2c0-0.7-0.3-1.3-0.9-1.8
		c-0.6-0.5-1.4-0.7-2.4-0.7c-0.8,0-1.4,0.2-1.9,0.5c-0.5,0.3-0.7,0.8-0.7,1.4c0,0.4,0.1,0.8,0.4,1.1c0.2,0.3,0.6,0.5,1.1,0.8
		c0.5,0.2,1.2,0.5,2.2,0.9c1.1,0.4,1.9,0.8,2.5,1.1c0.6,0.3,1.2,0.8,1.6,1.4c0.5,0.6,0.7,1.3,0.7,2.2c0,0.9-0.2,1.6-0.7,2.3
		c-0.4,0.7-1.1,1.2-1.9,1.5c-0.8,0.4-1.8,0.5-2.9,0.5C526.5,488.1,525.5,487.9,524.6,487.5L524.6,487.5z"/>
	<path id="path37" class="st2" d="M546.9,487.4c-0.8-0.4-1.5-1-2-1.8c-0.5-0.8-0.7-1.7-0.7-2.7v-5.5c0-1,0.2-1.9,0.7-2.7
		c0.5-0.8,1.1-1.4,2-1.8c0.8-0.4,1.8-0.6,2.9-0.6c1.1,0,2.1,0.2,2.9,0.6c0.8,0.4,1.5,1,2,1.8c0.5,0.8,0.7,1.6,0.7,2.6
		c0,0.1-0.1,0.2-0.3,0.3l-1.9,0.1H553c-0.2,0-0.3,0-0.3-0.1v-0.1c0-0.9-0.3-1.6-0.8-2.1c-0.5-0.5-1.3-0.8-2.2-0.8
		c-0.9,0-1.6,0.3-2.2,0.8c-0.5,0.5-0.8,1.2-0.8,2.1v5.7c0,0.9,0.3,1.6,0.8,2.1c0.5,0.5,1.3,0.8,2.2,0.8c0.9,0,1.6-0.3,2.2-0.8
		c0.5-0.5,0.8-1.2,0.8-2.1c0-0.1,0-0.1,0.1-0.2c0.1-0.1,0.2-0.1,0.3-0.1l1.9,0.1c0.2,0,0.4,0.1,0.4,0.1v0.1c0,1-0.2,1.9-0.7,2.7
		c-0.5,0.8-1.1,1.4-2,1.8c-0.8,0.4-1.8,0.6-2.9,0.6C548.7,488.1,547.7,487.9,546.9,487.4L546.9,487.4z"/>
</g>
<path id="path40" class="st1" d="M540.8,346.4L540.8,346.4C537.4,346.4,540.8,346.4,540.8,346.4z"/>
<g id="Layer1003">
	<path id="path42" class="st1" d="M417.2,264.4L417.2,264.4c0.3,0,0.5,0,0.8,0L417.2,264.4z"/>
	<path id="path44" class="st1" d="M417.5,264.4L417.5,264.4C417.8,264.4,417.5,264.4,417.5,264.4z"/>
	<g id="Layer1004">
		<path id="path46" class="st1" d="M538.9,337.2c-0.1-3.6-2.6-6.3-5.9-6.7l-0.9-0.1c0,0-1.9,0-6.9,0c-0.1,0-0.2,0-0.3-0.1l-0.8-0.1
			c-0.8,0-3.2,0-9.2,0c0-3.5,0-7.8,0-12.4h0l-0.1-53.2h-2l-7,0c-3.2,0.1-5.6,2-6.5,4.7c-0.1,0.4-0.2,0.8-0.3,1.3l-0.1,0.8l0.1,45.8
			c0,0.2,0,0.4,0,0.5v0l0,28.5l40.1-0.1v-2L538.9,337.2z"/>
		<path id="path48" class="st1" d="M524,330.2L524,330.2C525,330.2,524,330.2,524,330.2z"/>
		<path id="path50" class="st1" d="M373.5,264.6h-4.5c-10.6,0-19.2,8.6-19.2,19.2v43.3c0,10.6,8.6,19.2,19.2,19.2h4.5
			c10.6,0,19.2-8.6,19.2-19.2v-43.3C392.8,273.2,384.2,264.6,373.5,264.6L373.5,264.6z M377.2,329.6L377.2,329.6
			c0,3.1-2.5,5.5-5.5,5.5h-1c-3.1,0-5.5-2.5-5.5-5.5v-46.3c0-3.1,2.5-5.5,5.5-5.5h1c3.1,0,5.5,2.5,5.5,5.5V329.6z"/>
		<path id="path52" class="st1" d="M402.5,279.9L402.5,279.9C402.2,279.8,402.2,279.8,402.5,279.9z"/>
		<path id="path54" class="st1" d="M405,279.9c-0.2,0-1.9,0-2.5,0l0,0C402.5,279.9,403.4,279.9,405,279.9z"/>
		<path id="path56" class="st1" d="M438.3,264.5l-0.9-0.1c0,0-0.6,0-1.7,0c-0.1,0-1.5,0-7.6,0v0l-1.9,0c-0.2,0-0.4,0-0.6,0v0
			l-10.1,0.1l-19.6-0.2v0.2v2v2.9l0,0l0,3.9c0.1,3.5,2.4,6.1,5.7,6.6l0.8,0.1c0.5,0,2,0,5.5,0v0l2.4,0v0l2.3,0l0,34.7v1.6v0v2.4v0
			v6.1h0l0,21.6h2l6.8-0.1c3.5-0.1,6.1-2.5,6.6-5.7l0.1-0.9c0,0,0-0.9,0-2.4l0,0v-18.7l0-1.9c0-0.2,0-0.6,0-0.6l-0.1-10.1l0.1-26.1
			h4v0l11.8,0v-2L444,271C443.9,267.6,441.5,264.9,438.3,264.5L438.3,264.5z"/>
		<path id="path58" class="st1" d="M484.4,264.5l-0.9-0.1c0,0-0.9,0-2.4,0l0,0c-0.5,0-2.4,0-8.9,0v0l-1.9,0c-0.2,0-0.4,0-0.6,0v0
			l-6.8,0.2h-0.3h-2.9l0,0l-3.9,0c-3.5,0.1-6.1,2.4-6.6,5.7l-0.1,0.9c0,0,0,0.9,0,2.4v0c0,0,0,7.8,0,18.6h0v2.4l0,19.9v1.6v0v2.4v0
			v6.1h0l0,21.6h1.9l0,0c1,0,2.6,0,5.1,0v0l2.4,0v0l13.7,0h0h6.1v0l11.8,0v-2l-0.1-6.8c-0.1-3.5-2.5-6.1-5.7-6.6l-0.9-0.1
			c0,0-0.9,0-2.4,0l0,0c-0.5,0-2.4,0-8.9,0v0l-1.9,0c-0.2,0-0.4,0-0.6,0v0l-5.1,0.2c0-3.2,0-7.6,0-12.6h0l0-1.9c0-0.2,0-0.4,0-0.6h0
			l0-4.7h0.3h0h1.8h0h4.5v0l8.6,0v-1.4l-0.1-4.9c0-2.5-1.8-4.4-4.1-4.8l-0.7-0.1c0,0-0.6,0-1.8,0l0,0c-0.4,0-1.8,0-6.5,0v0l-1.4,0
			c-0.1,0-0.3,0-0.4,0v0l-0.2,0l0.1-20.2l7.6,0h0h6.1v0l11.8,0v-2l-0.1-6.8C490,267.6,487.6,264.9,484.4,264.5L484.4,264.5z"/>
		<path id="path60" class="st1" d="M481,330.9L481,330.9C481.4,330.9,481,330.9,481,330.9z"/>
		<path id="path62" class="st1" d="M473,300.1L473,300.1C473.3,300.1,473,300.1,473,300.1z"/>
		<path id="path64" class="st1" d="M342.7,264.6h-2h-2.9l0,0l-3.9,0c-3.5,0.1-6.1,2.4-6.6,5.7l-0.1,0.9c0,0,0,0.9,0,2.4l0,0
			c0,0,0,7.8,0,18.6h0l0,2.4h0l0,3c-1.1,0-2.2,0-3.5,0v0l-1.2,0v0l-10.1,0h-0.8h0h-0.1l0.2-33.1h-0.2h-2h-2.9l0,0l-3.9,0
			c-3.5,0.1-6.1,2.4-6.6,5.7l-0.1,0.9c0,0,0,0.9,0,2.4l0,0c0,0,0,7.8,0,18.6h0l0,2.4h0l0,19.9v1.6v0v2.4v0v6.1h0l0,21.6h2l6.8-0.1
			c3.5-0.1,6.1-2.5,6.6-5.7l0.1-0.9c0,0,0-0.9,0-2.4l0,0c0,0,0-7.7,0-18.7h0l0-1.9c0-0.2,0-0.4,0-0.6h0l0-2.9l0.1,0v0l5.2-0.1
			l10.4,0.1l0,1.4v1.6v0v2.4v0v6.1h0l0,21.6h2l6.8-0.1c3.5-0.1,6.1-2.5,6.6-5.7l0.1-0.9c0,0,0-0.9,0-2.4l0,0c0,0,0-7.7,0-18.7h0
			l0-1.9c0-0.2,0-0.4,0-0.6h0l-0.1-10.1l0.2-41.3H342.7z"/>
	</g>
</g>
<g id="Layer1005">
	<path id="path68" class="st1" d="M462.1,360.6L462.1,360.6C462.5,360.6,462.1,360.6,462.1,360.6z"/>
	<path id="path70" class="st1" d="M408.5,360.3l-0.5,0c0,0-12.4,0-19.5,0v0l-13.9,0h-0.3l-16.4,0v1.2l0,4c0,2.1,1.5,3.6,3.4,3.9
		l0.5,0.1c0,0,5.4,0,12.5,0v0l13.9,0h0.3v0l23.4,0v-1.2l-0.1-4C411.8,362.1,410.4,360.5,408.5,360.3L408.5,360.3z"/>
	<path id="path72" class="st1" d="M408.5,441.3l-0.5-0.1c0,0-12.4,0-19.5,0v0l-13.9,0l-0.3,0l-16.4,0v1.2l0,4c0,2,1.5,3.6,3.4,3.9
		l0.5,0.1c0,0,5.4,0,12.5,0v0l13.9,0h0.3v0l23.4,0v-1.2l-0.1-4C411.8,443.1,410.4,441.6,408.5,441.3L408.5,441.3z"/>
	<path id="path74" class="st1" d="M397.7,432.4h2.6c5.8,0,10.6-4.7,10.6-10.6v-31.2c0-5.8-4.7-10.6-10.6-10.6h-2.6
		c-5.8,0-10.6,4.7-10.6,10.6v31.2C387.2,427.6,391.9,432.4,397.7,432.4z M395.8,390L395.8,390c0-1.7,1.4-3,3-3h0.8c1.7,0,3,1.4,3,3
		v32.8c0,1.7-1.4,3.1-3,3.1h-0.8c-1.7,0-3-1.4-3-3.1V390z"/>
	<path id="path76" class="st1" d="M371.8,432.4c5.8,0,10.7-5.2,10.7-11.1v-31.4c0-5.8-4.8-10.2-10.7-10.2h-0.3h-2.3h-2.5h-1l-3.5,0
		c-1.8,0-3.2,1.3-3.4,2.9l0,0.3c0,0,0,0.4,0,1l0,0v0.3v22.2v0v25.9h10.6h2.3L371.8,432.4z M370.1,425.5L370.1,425.5L370.1,425.5H367
		V422v-27.8v-0.5v-4.6v-3h3.1h0.1h0.5c1.7,0,2.9,1.3,2.9,3V422c0,1.7-1.2,3.5-2.9,3.5H370.1z"/>
	<path id="path78" class="st1" d="M672.7,439.8c-0.1-3.9-2.8-6.9-6.4-7.4l-1-0.1c0,0-4.8,0-18.9,0c0-3.8,0-8.5,0-13.6h0l-0.1-58.2
		h-2.2l-7.6,0c-3.9,0.1-6.9,2.8-7.4,6.4l-0.1,0.9L629,418c0,0.2,0,0.4,0,0.6v0l0,31.2l43.8-0.1v-2.2L672.7,439.8z"/>
	<path id="path80" class="st1" d="M601.4,360.5h-4.9c-11.6,0-21,9.4-21,21v47.3c0,11.6,9.4,21,21,21h4.9c11.6,0,21-9.4,21-21v-47.3
		C622.4,369.9,613,360.5,601.4,360.5z M605.4,431.4L605.4,431.4c0,3.3-2.7,6-6,6h-1.1c-3.3,0-6-2.7-6-6v-50.5c0-3.3,2.7-6,6-6h1.1
		c3.3,0,6,2.7,6,6L605.4,431.4z"/>
	<path id="path82" class="st1" d="M551.8,360.5h-7.4h-0.2H542h-3.1l0,0l-4.3,0c-3.8,0.1-6.6,2.7-7.1,6.2l-0.1,0.9c0,0,0,1,0,2.7v0
		c0,0,0,8.5,0,20.3h0l0,2.7h0l0,21.7v1.8v0v2.6v0v6.7h0l0,23.5h2.2l7.4-0.1c3.8-0.1,6.7-2.7,7.1-6.2l0.1-1c0,0,0-0.9,0-2.7l0,0
		c0,0,0-8.4,0-20.4h0l0-2c0-0.2,0-0.4,0-0.6h0l-0.1-11h1.9l5.2,36c0,0.4,0.1,0.9,0.2,1.3l1,6.8h7.6l0,0c4.7-0.1,8.5-3.9,8.5-8.7
		c0-0.4,0-0.9-0.1-1.3l0,0l-3.2-24.8l-1.6-14.1c3.9-3.6,6.3-8.9,6.3-15.1v-5C570.1,369.5,562.2,360.5,551.8,360.5L551.8,360.5z
		 M554.3,388.8L554.3,388.8c0,2.7-1.7,4.5-4.3,4.5h-0.7h-0.1h-4.9l0-2.7h0l0-18.2h4.9h0.1h0.7c2.7,0,4.3,2.4,4.3,5.1V388.8z"/>
	<path id="path84" class="st1" d="M457.6,393.5l-0.3,0l-0.1,0l-0.2,0l-0.1,0c0,0-0.5,0-1.3,0l-0.6,0l-0.1,0l-4,0l-4.4,0l-0.1-15.8
		h3.4h0h2.7h0h6.7v0l12.9,0v-2.2l-0.1-7.4c-0.1-3.8-2.7-6.7-6.2-7.2l-1-0.1c0,0-0.9,0-2.7,0l0,0c-0.5,0-2.6,0-9.7,0v0l-2,0
		c-0.2,0-0.4,0-0.6,0v0l-13.7,0.3l0,0c-3.7,0.3-6.8,2.9-6.8,6.4l0,82.7h2.2l7.6-0.3c3.9-0.1,6.8-2.8,7.3-6.5l0.1-1.1
		c0,0,0-9.9,0-23.8h0l0.2-12.7h1.3h0h4.9v0l9.4,0v-1.6l-0.1-5.4C462.1,395.9,460.2,393.9,457.6,393.5L457.6,393.5z"/>
	<path id="path86" class="st1" d="M522,439.8L522,439.8l-7.6-69.6v0c-1-13.3-35.6-13.3-36.6,0v0l-8.6,79.5h1.9h6.4l0,0
		c3.3-0.1,6.1-2.7,6.9-6.4l0.2-0.9l0-0.1l4.3-36.6h0.7v0l9.4,0v-1.6l-0.1-5.4c-0.1-2.8-2-4.8-4.5-5.2l-0.3,0l-0.1,0l-0.2,0l-0.1,0
		c0,0-0.5,0-1.3,0l-0.6,0h-0.1l-1.3,0l1.8-15.5c0-2.1,1.6-3.9,3.3-3.9h1c1.7,0,3.3,1.9,3.3,3.9l2.8,25l2.1,17.3l2.6,21.4
		c0,0.4,0.1,0.9,0.2,1.3l0.8,6.8h6.4l0,0c4-0.1,7.2-3.9,7.2-8.6C522.1,440.6,522.1,440.2,522,439.8L522,439.8z"/>
	<path id="path88" class="st1" d="M214.6,360.3L214.6,360.3c-3.9,0.1-7.2,2.8-8.2,6.4l-0.2,0.9v0.1l-9,64.4c-0.4,2-1.8,4-3.9,4h-0.7
		h-0.5c-1.6,0-3.6-1.9-3.9-4l-8.8-63.8c0-0.4-0.1-0.9-0.2-1.3l-1-6.8h-7.6l0,0c-4.7,0.1-8.5,3.9-8.5,8.6c0,0.4,0,0.9,0.1,1.3l-0.1,0
		l8.9,69.5v0c1.2,13.3,41.8,13.3,43,0v0l10.2-79.5h-2.2L214.6,360.3z"/>
	<path id="path90" class="st1" d="M247.9,360.2h-2.2l-7.6,0.1c-3.9,0.1-6.8,2.8-7.3,6.4l-0.1,1c0,0,0,10.4,0,23.8h0l0,26.5
		c0,0.2,0,0.4,0,0.5l0,31.2h2.2l7.6-0.1c3.9-0.1,6.8-2.8,7.3-6.4l0.1-0.9c0,0,0-10.4,0-23.8h0l0-26.5c0-0.2,0-0.4,0-0.5H248
		L247.9,360.2z"/>
	<path id="path92" class="st1" d="M344,439.4L344,439.4l-7.6-69.6v0c-1-13.3-35.6-13.3-36.6,0v0l-6.7,62.2l-0.3,0c0,0-4.8,0-18.9,0
		c0-3.8,0-8.5,0-13.6h0l-0.1-58.2h-2.2l-7.6,0c-3.9,0.1-6.9,2.8-7.4,6.4l-0.1,0.9l0.1,50.1c0,0.2,0,0.4,0,0.6v0l0,31.2l41.4-0.1h1.6
		l0,0l0.8,0v-0.1c3-0.4,5.4-3,6.1-6.3l0.2-0.9l0-0.1l4.3-36.6h0.7v0l9.4,0v-1.6l-0.1-5.4c-0.1-2.8-2-4.8-4.5-5.2l-0.3,0l-0.1,0
		l-0.2,0l-0.1,0c0,0-0.5,0-1.3,0l-0.6,0h-0.1l-1.3,0l1.8-15.5c0-2.1,1.6-3.9,3.3-3.9h1c1.7,0,3.3,1.9,3.3,3.9l2.8,25l2.1,17.3
		l2.6,21.4c0,0.4,0.1,0.9,0.2,1.3l0.8,6.8h6.4l0,0c4-0.1,7.2-3.9,7.2-8.6C344.1,440.2,344.1,439.8,344,439.4L344,439.4z"/>
</g>
</svg>
