<?xml version="1.0" encoding="UTF-8" standalone="no"?>
<svg
   xmlns:dc="http://purl.org/dc/elements/1.1/"
   xmlns:cc="http://creativecommons.org/ns#"
   xmlns:rdf="http://www.w3.org/1999/02/22-rdf-syntax-ns#"
   xmlns:svg="http://www.w3.org/2000/svg"
   xmlns="http://www.w3.org/2000/svg"
   viewBox="0 0 841.88977 595.27557"
   id="svg96"
   height="595.27557"
   width="841.88977"
   version="1.1">
  <metadata
     id="metadata102">
    <rdf:RDF>
      <cc:Work
         rdf:about="">
        <dc:format>image/svg+xml</dc:format>
        <dc:type
           rdf:resource="http://purl.org/dc/dcmitype/StillImage" />
      </cc:Work>
    </rdf:RDF>
  </metadata>
  <defs
     id="defs100" />
  <g
     id="Layer1000">
    <g
       id="Layer1001">
      <path
         id="path2"
         style="fill:#e8bf49;fill-rule:evenodd"
         d="m 190.3494,283.8367 c 0,19.9452 -16.1697,36.1111 -36.1116,36.1111 -19.9436,0 -36.1109,-16.1659 -36.1109,-36.1111 0,-19.944 16.1673,-36.1113 36.1109,-36.1113 19.9419,0 36.1116,16.1673 36.1116,36.1113 z" />
      <path
         id="path4"
         style="fill:#013480;fill-rule:evenodd"
         d="m 162.205,360.4915 c 0,-0.5227 0.3343,-36.0159 0.3343,-36.0159 0,0 -6.424,0.9851 -8.6723,0.9756 -2.2687,-0.01 -8.7867,-1.0707 -8.7867,-1.0707 l -0.1883,36.5036 -22.6828,6.9124 -0.1242,1.5644 4.3061,4.0416 0.611,3.2635 55.9846,0.0535 v -3.132 l 3.5231,-5.3755 v -1.7162 c 0,0 -24.3048,-5.4843 -24.3048,-6.0043 z" />
      <path
         id="path6"
         style="fill:#013480;fill-rule:evenodd"
         d="m 203.026,293.3269 50.7834,1.3336 4.5017,0.2791 -1.7128,-0.2078 0.9972,0.0276 -1.5587,-0.0937 -61.5808,-7.3761 c 0.0673,-0.787 0.1135,-1.5773 0.1339,-2.3713 l 49.8187,-12.5232 -49.4439,9.1117 v -0.0342 l 49.2516,-9.0775 -50.274,4.0075 c -0.1323,-0.6593 -0.3375,-1.3158 -0.4981,-1.9652 l 55.9496,-24.7645 -58.0731,18.6201 c -0.4982,-1.1547 -1.0565,-2.2906 -1.6577,-3.3966 l 50.7672,-36.2665 -1.5205,-1.9694 -52.3585,33.4114 c -1.506,-2.0095 -3.1986,-3.8883 -5.0794,-5.6028 -0.4397,-0.3992 -0.891,-0.7875 -1.3453,-1.1616 3.4144,-5.879 28.9315,-49.7866 33.3805,-57.2937 -4.1934,6.7407 -27.196,42.9071 -35.3684,55.7456 l -0.006,-0.007 35.8357,-56.512 c -0.1078,0.1818 -0.2628,0.2588 -0.4616,0.5908 0.4186,-0.6663 0.6491,-1.2692 0.6612,-1.2692 l -2.8269,-0.6507 -37.018,55.3127 c -1.3145,-0.7388 -2.6654,-1.3567 -4.0521,-1.9392 l 10.033,-33.7781 -5.5467,0.1915 -10.5378,31.6189 -0.172,-0.0397 2.1527,-6.7283 6.8084,-54.0866 c -0.3926,-0.1294 -4.4504,-0.9153 -4.4504,-0.9153 l -10.7407,60.7353 c -1.3964,-0.1143 -2.8058,-0.3708 -4.212,-0.3358 l -10.3381,-66.0749 h -4.6518 l 8.9368,66.683 -0.0121,0.1115 -8.9247,-66.2549 7.1006,66.7077 c -0.8171,0.1915 -1.6277,0.4171 -2.4293,0.6549 l -24.756,-57.9138 -3.5362,0.7924 23.0674,59.1142 c -2.1031,0.9705 -4.1186,2.1235 -6.0246,3.4403 l -30.1006,-33.5622 -5.0088,0.7156 29.0799,37.9317 c -1.2098,1.2414 -2.3458,2.5584 -3.3973,3.9512 -0.8554,1.1311 -1.6407,2.3023 -2.3572,3.5161 -16.4164,-7.7907 -61.8073,-29.3128 -60.8766,-28.6588 0.4764,0.3327 12.0478,6.4636 25.333,13.4755 l -25.5236,-13.4292 58.9389,32.7739 c -0.194,0.439 -0.3806,0.8864 -0.5591,1.3352 l -28.5826,-7.1218 27.3793,10.642 -0.0138,0.058 -28.1258,-10.853 27.5878,12.9116 c -0.4957,2.136 -0.8179,4.3101 -0.9663,6.4981 -15.1685,0.1075 -57.5993,0.4102 -65.3953,0.4666 -0.9152,-0.026 -1.3599,-0.0249 -1.2399,0.008 1.175,0.3205 50.2415,4.5511 66.7074,5.9626 0.0949,1.0487 0.228,2.0906 0.4032,3.1284 -11.3329,3.4655 -40.429,12.3346 -45.6668,13.9309 l -0.4486,0.1007 0.3076,-0.0567 c -0.4382,0.1321 -0.676,0.2036 -0.676,0.2036 l 2.0724,-0.4552 45.7567,-8.228 c 0.667,2.0528 1.5101,4.0399 2.5032,5.9504 l -20.7865,12.4875 3.3348,0.1485 c 0,0 9.9251,-4.503 19.6588,-8.9108 0.3285,0.4916 0.6693,0.9756 1.0183,1.4507 l -40.6457,36.6074 -2.7126,2.147 1.7543,-1.2824 -2.0229,1.8195 5.1321,-4.0968 42.1632,-30.8569 c 1.1862,1.2203 2.4487,2.3669 3.7803,3.4306 l -32.8539,56.396 37.5722,-53.1455 c 0.4285,0.2532 0.8617,0.4983 1.3008,0.7335 l -17.318,43.764 3.6408,-0.15 19.7172,-41.0118 c 6.9391,2.3149 14.4957,2.6825 21.6547,1.0734 l 2.5544,8.992 0.125,0.8865 h 5.077 l -2.3409,-11.319 c 1.5099,-0.5781 2.9128,-1.3405 4.323,-2.0947 8.3892,12.7326 31.5346,47.2567 31.5346,47.9874 v -0.0219 l 3.0613,-0.9056 -27.7159,-51.7981 c 2.4204,-2.0423 4.6047,-4.3689 6.4775,-6.914 l 60.7377,31.1308 -57.6877,-35.9047 c 0.2995,-0.5558 0.5874,-1.116 0.8642,-1.6845 l 50.57,18.5374 -48.4044,-23.979 c 0.4487,-1.4188 0.8212,-2.8647 1.1116,-4.335 z m -10.3097,-6.249 v 0 l -3.1037,-0.3692 -0.718,3.9377 3.2334,0.6134 c -0.2563,1.3129 -0.5802,2.6066 -0.9688,3.8797 l -8.2609,-4.0914 -1.7437,3.8915 -1.8808,2.2804 9.6686,3.5467 c -0.2215,0.458 -0.4551,0.9152 -0.6985,1.368 l -1.498,-0.9336 -1.6129,2.6826 -1.2489,2.506 1.2358,0.6341 c -1.7089,2.2809 -3.6789,4.382 -5.8851,6.2661 l -1.8281,0.9854 -7.1031,0.4581 c 0,0 0.774,1.1765 2.0886,3.1722 -1.2333,0.641 -2.5,1.2154 -3.7933,1.7132 l -2.3766,-11.2984 -2.2265,-0.3302 -2.2274,-0.0909 0.008,0.3251 h -0.003 l -0.005,-0.3129 -1.5546,3.713 2.8473,9.7421 c -5.4893,1.2232 -11.2502,1.2224 -16.7905,-0.001 -1.2212,-0.2669 -2.4228,-0.6231 -3.6002,-1.0102 l 4.221,-8.794 -3.1832,-5.6121 -2.7296,0.4516 -4.4571,11.268 c -0.3132,-0.1704 -0.6247,-0.345 -0.9315,-0.5225 l 1.377,-1.9491 -1.3924,-2.5503 -3.8233,-0.5793 -1.0069,1.7291 c -1.347,-1.0904 -2.62,-2.2711 -3.812,-3.5304 l -0.2597,-1.6374 -2.0115,-3.0899 -0.9484,0.852 c -0.2395,-0.3318 -0.4747,-0.6645 -0.7052,-1.0033 8.6561,-3.919 16.7027,-7.5594 16.9097,-7.6308 0.4544,-0.1514 -0.3003,-6.2134 -0.3003,-6.2134 l -2.1226,-0.1518 -16.818,10.1 -0.047,-0.0892 c -0.8779,-1.6999 -1.6148,-3.4611 -2.2136,-5.2652 l 1.9085,-0.34 0.8455,-2.2006 -1.3405,-4.0237 c -0.1112,0.034 -1.1319,0.3506 -2.8148,0.8626 -0.1338,-0.8131 -0.2458,-1.6322 -0.3262,-2.4538 2.2493,0.1928 3.5515,0.3059 3.5515,0.3059 l 0.259,-2.9534 -0.259,-3.9801 c 0,0 -1.3363,0.008 -3.6431,0.0249 0.1363,-1.9244 0.4178,-3.8397 0.8398,-5.7233 l 13.5383,6.3371 c 0.456,0.1525 6.3679,-1.0626 6.3679,-1.0626 l -19.3497,-7.4657 0.0148,-0.0466 19.3349,7.5123 0.3018,-6.6694 -18.3531,-4.5739 c 0.1216,-0.3041 0.2474,-0.6084 0.3765,-0.9071 l 1.6008,0.8889 3.6651,0.0702 -0.0899,-0.0455 1.2389,-3.1693 c 0,0 -1.5684,-0.7429 -4.2226,-2.0033 1.4809,-2.4761 3.2376,-4.7634 5.223,-6.826 l 6.8824,8.9754 4.4701,-0.7157 -0.714,-8.4095 -4.5034,-5.0209 c 1.7397,-1.1805 3.5727,-2.2224 5.4851,-3.1126 l 2.3522,6.0304 3.4071,-0.6539 1.0484,-3.7982 -1.5279,-3.575 c 0.3206,-0.0934 0.6411,-0.1859 0.9648,-0.2711 0.3188,-0.0868 0.6377,-0.164 0.9551,-0.2426 l 0.0478,0.443 2.237,2.7982 -0.4121,-2.5143 h 0.009 l 0.4032,2.4326 6.1303,-1.0823 -0.4391,-2.9357 c 1.2131,-0.0178 2.4237,-0.0523 3.6335,0.0438 l -0.74,4.1536 2.091,2.3381 3.1442,-0.9221 1.4987,-4.6803 0.1518,0.0341 -4.6454,13.9355 0.7164,2.502 5.5452,0.7156 4.4855,-15.1149 c 1.2196,0.5218 2.4091,1.1069 3.5727,1.7503 l -2.229,3.3252 4.1536,2.1607 1.9255,-3.0371 0.007,0.006 c -1.2212,1.9183 -1.932,3.0307 -1.932,3.0307 l 3.5174,-1.8232 c 2.3799,1.9222 4.4888,4.1295 6.3063,6.5447 l -2.7175,1.7356 -0.6028,2.2737 2.4245,3.7884 4.0391,-2.8821 c 0.5063,0.9509 0.9762,1.9202 1.4021,2.9096 l -1.6301,0.5227 1.79,5.0096 1.9223,0.6401 c 0.1266,0.5104 -0.0204,1.0236 0.0851,1.5425 l -8.807,0.6783 v 6.1903 l 0.198,0.073 8.3104,2.1478 1.1855,-0.2654 c -0.0236,0.5725 0.0836,1.1409 0.0357,1.7081 z m 0.2142,-5.2519 v 0 l -0.3586,0.0674 0.5274,-0.1019 z" />
      <path
         id="path8"
         style="fill:#013480;fill-rule:evenodd"
         d="m 159.7773,289.4199 -1.2114,6.6694 14.8544,15.4638 4.3954,-0.1517 -13.0353,-21.0719 z" />
      <path
         id="path10"
         style="fill:#013480;fill-rule:evenodd"
         d="m 161.848,277.2241 v 3.0412 l 4.4855,0.7157 15.1416,-23.2598 -4.4806,-0.8508 z" />
      <path
         id="path12"
         style="fill:#013480;fill-rule:evenodd"
         d="m 176.0119,256.8197 0.2889,0.0507 0.0283,-0.0357 z" />
    </g>
    <g
       id="Layer1002">
      <path
         id="path15"
         style="fill:#4d4d4b;fill-rule:evenodd"
         d="m 299.7415,409.5328 0.0884,0.1018 c 1.4809,0.7071 2.2225,1.921 2.2225,3.6412 0,1.4037 -0.4713,2.4764 -1.4111,3.2078 -0.942,0.7349 -2.1656,1.1011 -3.6764,1.1011 h -5.5094 c -0.2362,0 -0.3539,-0.1172 -0.3539,-0.3566 v -14.8365 c 0,-0.2361 0.1177,-0.3578 0.3539,-0.3578 h 5.3325 c 1.6123,0 2.8569,0.348 3.7309,1.0459 0.8722,0.6954 1.3112,1.747 1.3112,3.1539 0,1.5267 -0.6678,2.5961 -2.0002,3.2209 z m -6.0636,-5.1427 v 0 4.0651 c 0,0.0865 0.0438,0.1335 0.1339,0.1335 h 2.9762 c 0.7838,0 1.4013,-0.1903 1.8541,-0.5668 0.4503,-0.3801 0.6775,-0.9002 0.6775,-1.5652 0,-0.6791 -0.2272,-1.2203 -0.6775,-1.6102 -0.4528,-0.3971 -1.0703,-0.5899 -1.8541,-0.5899 h -2.9762 c -0.0901,0 -0.1339,0.0443 -0.1339,0.1335 z m 5.1191,10.3284 v 0 c 0.4537,-0.413 0.6768,-0.9761 0.6768,-1.689 0,-0.7233 -0.2289,-1.2922 -0.6881,-1.6982 -0.4592,-0.4098 -1.08,-0.6098 -1.8646,-0.6098 h -3.1093 c -0.0901,0 -0.1339,0.0413 -0.1339,0.1339 v 4.3499 c 0,0.0896 0.0438,0.1336 0.1339,0.1336 h 3.1531 c 0.77,0 1.381,-0.2038 1.8321,-0.6204 z" />
      <path
         id="path17"
         style="fill:#4d4d4b;fill-rule:evenodd"
         d="m 316.0898,417.1279 c -0.8594,-0.4515 -1.5222,-1.0913 -1.9888,-1.9226 -0.4658,-0.8296 -0.6987,-1.7822 -0.6987,-2.8638 v -5.0644 c 0,-1.065 0.2354,-2.0107 0.71,-2.829 0.4739,-0.8219 1.1352,-1.4617 1.9881,-1.9128 0.851,-0.452 1.8328,-0.676 2.9445,-0.676 1.1238,0 2.1129,0.224 2.9641,0.676 0.8519,0.4511 1.5132,1.0909 1.9879,1.9128 0.4747,0.8183 0.7117,1.764 0.7117,2.829 v 5.0644 c 0,1.0816 -0.237,2.0342 -0.7117,2.8638 -0.4747,0.8313 -1.136,1.4711 -1.9879,1.9226 -0.8512,0.4503 -1.8403,0.68 -2.9641,0.68 -1.1117,0 -2.0959,-0.2297 -2.9551,-0.68 z m 5.1969,-2.4094 v 0 c 0.5632,-0.5769 0.8439,-1.3397 0.8439,-2.2873 v -5.1789 c 0,-0.9635 -0.2807,-1.7312 -0.8439,-2.3076 -0.5613,-0.5781 -1.3095,-0.867 -2.2418,-0.867 -0.9194,0 -1.6601,0.2889 -2.2216,0.867 -0.5631,0.5764 -0.8464,1.3441 -0.8464,2.3076 v 5.1789 c 0,0.9476 0.2833,1.7104 0.8464,2.2873 0.5615,0.5764 1.3022,0.8653 2.2216,0.8653 0.9323,0 1.6805,-0.2889 2.2418,-0.8653 z" />
      <path
         id="path19"
         style="fill:#4d4d4b;fill-rule:evenodd"
         d="m 336.4576,417.2281 v -14.8365 c 0,-0.2361 0.1176,-0.3578 0.3546,-0.3578 h 1.889 c 0.2069,0 0.3546,0.0827 0.4439,0.2451 l 3.4647,5.5986 0.0998,0.0658 0.0787,-0.0658 3.5085,-5.5986 c 0.0884,-0.1624 0.2377,-0.2451 0.4446,-0.2451 h 1.8662 c 0.2361,0 0.3554,0.1217 0.3554,0.3578 v 14.8365 c 0,0.2394 -0.1193,0.3566 -0.3554,0.3566 h -1.8662 c -0.2354,0 -0.3562,-0.1172 -0.3562,-0.3566 v -10.5052 l -0.0544,-0.1145 -0.0997,0.0703 -2.6429,4.3292 c -0.0899,0.1623 -0.2376,0.2462 -0.4453,0.2462 h -0.8667 c -0.2069,0 -0.3545,-0.0839 -0.4438,-0.2462 l -2.6419,-4.3292 -0.0998,-0.0703 -0.056,0.1145 v 10.5052 c 0,0.2394 -0.1185,0.3566 -0.357,0.3566 h -1.8655 c -0.237,0 -0.3546,-0.1172 -0.3546,-0.3566 z" />
      <path
         id="path21"
         style="fill:#4d4d4b;fill-rule:evenodd"
         d="m 369.5314,409.5328 0.0892,0.1018 c 1.48,0.7071 2.2209,1.921 2.2209,3.6412 0,1.4037 -0.4699,2.4764 -1.4111,3.2078 -0.9412,0.7349 -2.1656,1.1011 -3.6765,1.1011 h -5.5071 c -0.2376,0 -0.3569,-0.1172 -0.3569,-0.3566 v -14.8365 c 0,-0.2361 0.1193,-0.3578 0.3569,-0.3578 h 5.3302 c 1.6131,0 2.8587,0.348 3.73,1.0459 0.8756,0.6954 1.3129,1.747 1.3129,3.1539 0,1.5267 -0.6678,2.5961 -1.9993,3.2209 z m -6.0645,-5.1427 v 0 4.0651 c 0,0.0865 0.0446,0.1335 0.1347,0.1335 h 2.9754 c 0.7855,0 1.4021,-0.1903 1.8541,-0.5668 0.4519,-0.3801 0.6784,-0.9002 0.6784,-1.5652 0,-0.6791 -0.2265,-1.2203 -0.6784,-1.6102 -0.452,-0.3971 -1.0686,-0.5899 -1.8541,-0.5899 h -2.9754 c -0.0901,0 -0.1347,0.0443 -0.1347,0.1335 z m 5.12,10.3284 v 0 c 0.4519,-0.413 0.6783,-0.9761 0.6783,-1.689 0,-0.7233 -0.2304,-1.2922 -0.6896,-1.6982 -0.4593,-0.4098 -1.0809,-0.6098 -1.8663,-0.6098 h -3.1077 c -0.0901,0 -0.1347,0.0413 -0.1347,0.1339 v 4.3499 c 0,0.0896 0.0446,0.1336 0.1347,0.1336 h 3.1523 c 0.77,0 1.3818,-0.2038 1.833,-0.6204 z" />
      <path
         id="path23"
         style="fill:#4d4d4b;fill-rule:evenodd"
         d="m 383.5923,417.2281 v -14.8365 c 0,-0.2361 0.1176,-0.3578 0.3529,-0.3578 h 1.867 c 0.2361,0 0.3554,0.1217 0.3554,0.3578 v 14.8365 c 0,0.2394 -0.1193,0.3566 -0.3554,0.3566 h -1.867 c -0.2353,0 -0.3529,-0.1172 -0.3529,-0.3566 z" />
      <path
         id="path25"
         style="fill:#4d4d4b;fill-rule:evenodd"
         d="m 398.2957,417.2281 v -14.8365 c 0,-0.2361 0.1169,-0.3578 0.3546,-0.3578 h 1.7769 c 0.2069,0 0.3563,0.0827 0.4455,0.2451 l 6.2179,10.1742 0.1006,0.0661 0.0552,-0.1104 v -10.0172 c 0,-0.2361 0.1183,-0.3578 0.3561,-0.3578 h 1.8663 c 0.2353,0 0.3546,0.1217 0.3546,0.3578 v 14.8365 c 0,0.2394 -0.1193,0.3566 -0.3546,0.3566 h -1.8217 c -0.2085,0 -0.3561,-0.0807 -0.4446,-0.2446 l -6.2202,-10.2407 -0.099,-0.067 -0.0552,0.1128 0.0219,10.0829 c 0,0.2394 -0.1193,0.3566 -0.3562,0.3566 h -1.8435 c -0.2377,0 -0.3546,-0.1172 -0.3546,-0.3566 z" />
      <path
         id="path27"
         style="fill:#4d4d4b;fill-rule:evenodd"
         d="m 430.7487,402.0338 h 1.8638 c 0.2362,0 0.3546,0.1217 0.3546,0.3578 v 14.8365 c 0,0.2394 -0.1184,0.3566 -0.3546,0.3566 h -1.8638 c -0.2394,0 -0.3594,-0.1172 -0.3594,-0.3566 v -6.2437 c 0,-0.0852 -0.0439,-0.129 -0.1315,-0.129 h -5.6198 c -0.0884,0 -0.1339,0.0438 -0.1339,0.129 v 6.2437 c 0,0.2394 -0.1184,0.3566 -0.3546,0.3566 h -1.8654 c -0.2385,0 -0.3553,-0.1172 -0.3553,-0.3566 v -14.8365 c 0,-0.2361 0.1168,-0.3578 0.3553,-0.3578 h 1.8654 c 0.2362,0 0.3546,0.1217 0.3546,0.3578 v 6.1058 c 0,0.0913 0.0455,0.1339 0.1339,0.1339 h 5.6198 c 0.0876,0 0.1315,-0.0426 0.1315,-0.1339 v -6.1058 c 0,-0.2361 0.12,-0.3578 0.3594,-0.3578 z" />
      <path
         id="path29"
         style="fill:#4d4d4b;fill-rule:evenodd"
         d="m 454.3809,417.296 -0.6889,-2.2886 c -0.0138,-0.0744 -0.0657,-0.112 -0.1574,-0.112 h -5.8194 c -0.0868,0 -0.1387,0.0376 -0.1558,0.112 l -0.6905,2.2886 c -0.0551,0.1926 -0.1899,0.2887 -0.396,0.2887 h -2.022 c -0.12,0 -0.2004,-0.0369 -0.2548,-0.1099 -0.0519,-0.0742 -0.064,-0.172 -0.0341,-0.2917 l 4.754,-14.8559 c 0.0585,-0.1912 0.1915,-0.2934 0.4001,-0.2934 h 2.5982 c 0.2068,0 0.3415,0.1022 0.4007,0.2934 l 4.776,14.8559 0.0211,0.1335 c 0,0.1813 -0.1039,0.2681 -0.3124,0.2681 h -2.0204 c -0.2077,0 -0.3416,-0.0961 -0.3984,-0.2887 z m -6.0207,-4.419 v 0 h 4.5317 c 0.0893,0 0.1242,-0.0524 0.112,-0.1599 l -2.2897,-7.5509 -0.0772,-0.0881 -0.1022,0.0881 -2.2865,7.5509 c -0.0162,0.1075 0.0235,0.1599 0.1119,0.1599 z" />
      <path
         id="path31"
         style="fill:#4d4d4b;fill-rule:evenodd"
         d="m 469.4511,417.2034 c -0.8535,-0.3687 -1.5068,-0.8872 -1.9669,-1.5619 -0.4592,-0.6756 -0.6879,-1.4557 -0.6879,-2.3446 v -0.4681 c 0,-0.2353 0.1192,-0.3555 0.3569,-0.3555 h 1.82 c 0.2378,0 0.3546,0.1132 0.3546,0.3347 v 0.3566 c 0,0.6808 0.2987,1.2479 0.9007,1.6971 0.5996,0.454 1.3939,0.6779 2.3863,0.6779 0.9055,0 1.5863,-0.1914 2.0447,-0.5761 0.4593,-0.387 0.6881,-0.884 0.6881,-1.4905 0,-0.4131 -0.1249,-0.7668 -0.3765,-1.0544 -0.2507,-0.2885 -0.6126,-0.5506 -1.0783,-0.7883 -0.4666,-0.2341 -1.1668,-0.5303 -2.0983,-0.8894 -1.0525,-0.3825 -1.9035,-0.7456 -2.5543,-1.0873 -0.6524,-0.3383 -1.196,-0.8024 -1.6318,-1.3871 -0.4373,-0.5862 -0.6548,-1.3128 -0.6548,-2.1907 0,-1.3007 0.4731,-2.3296 1.4183,-3.0854 0.9478,-0.7558 2.2153,-1.1311 3.7991,-1.1311 1.1116,0 2.0918,0.1915 2.9438,0.5736 0.8495,0.3912 1.5116,0.9235 1.9871,1.6116 0.4754,0.688 0.7107,1.4864 0.7107,2.3895 v 0.2889 c 0,0.2353 -0.1168,0.3546 -0.3529,0.3546 h -1.8224 c -0.1055,0 -0.1915,-0.0261 -0.2555,-0.0795 -0.0674,-0.0495 -0.0999,-0.1145 -0.0999,-0.1875 v -0.2458 c 0,-0.6942 -0.2864,-1.2829 -0.8552,-1.7657 -0.5713,-0.4791 -1.3567,-0.7213 -2.3644,-0.7213 -0.8155,0 -1.4492,0.1704 -1.902,0.5087 -0.4495,0.3441 -0.6775,0.8237 -0.6775,1.448 0,0.4434 0.1209,0.8053 0.3562,1.0873 0.2377,0.2836 0.5899,0.5367 1.0661,0.7663 0.4739,0.2273 1.2066,0.523 2.1998,0.8796 1.0517,0.3992 1.8906,0.7611 2.5211,1.0873 0.628,0.3245 1.1708,0.779 1.6219,1.3652 0.4528,0.5846 0.6783,1.3125 0.6783,2.1851 0,0.8641 -0.223,1.6208 -0.666,2.2788 -0.4448,0.6581 -1.0841,1.1685 -1.9126,1.5345 -0.8276,0.3597 -1.8054,0.5452 -2.9332,0.5452 -1.123,0 -2.1129,-0.1898 -2.9633,-0.5603 z" />
      <path
         id="path33"
         style="fill:#4d4d4b;fill-rule:evenodd"
         d="m 501.8237,411.6534 v -1.5108 c 0,-0.2353 0.1176,-0.3554 0.3562,-0.3554 h 6.819 c 0.237,0 0.353,0.1201 0.353,0.3554 v 1.5108 c 0,0.2353 -0.116,0.3567 -0.353,0.3567 h -6.819 c -0.2386,0 -0.3562,-0.1214 -0.3562,-0.3567 z" />
      <path
         id="path35"
         style="fill:#4d4d4b;fill-rule:evenodd"
         d="m 535.9531,417.2034 c -0.8528,-0.3687 -1.5093,-0.8872 -1.9677,-1.5619 -0.4609,-0.6756 -0.6864,-1.4557 -0.6864,-2.3446 v -0.4681 c 0,-0.2353 0.1176,-0.3555 0.3537,-0.3555 h 1.8232 c 0.2362,0 0.3546,0.1132 0.3546,0.3347 v 0.3566 c 0,0.6808 0.2994,1.2479 0.9007,1.6971 0.5988,0.454 1.3931,0.6779 2.3863,0.6779 0.9031,0 1.5831,-0.1914 2.044,-0.5761 0.4585,-0.387 0.688,-0.884 0.688,-1.4905 0,-0.4131 -0.1258,-0.7668 -0.378,-1.0544 -0.2509,-0.2885 -0.6078,-0.5506 -1.0744,-0.7883 -0.469,-0.2341 -1.1692,-0.5303 -2.0999,-0.8894 -1.0556,-0.3825 -1.9052,-0.7456 -2.5551,-1.0873 -0.6532,-0.3383 -1.196,-0.8024 -1.6334,-1.3871 -0.4365,-0.5862 -0.6564,-1.3128 -0.6564,-2.1907 0,-1.3007 0.4755,-2.3296 1.4248,-3.0854 0.9461,-0.7558 2.2111,-1.1311 3.7982,-1.1311 1.1092,0 2.0902,0.1915 2.9405,0.5736 0.852,0.3912 1.5149,0.9235 1.9888,1.6116 0.4714,0.688 0.7092,1.4864 0.7092,2.3895 v 0.2889 c 0,0.2353 -0.1177,0.3546 -0.3554,0.3546 h -1.8192 c -0.1039,0 -0.1882,-0.0261 -0.2556,-0.0795 -0.0673,-0.0495 -0.1023,-0.1145 -0.1023,-0.1875 v -0.2458 c 0,-0.6942 -0.2831,-1.2829 -0.8544,-1.7657 -0.5703,-0.4791 -1.3591,-0.7213 -2.3661,-0.7213 -0.8113,0 -1.4467,0.1704 -1.8978,0.5087 -0.4527,0.3441 -0.6783,0.8237 -0.6783,1.448 0,0.4434 0.1184,0.8053 0.3554,1.0873 0.2369,0.2836 0.5947,0.5367 1.0677,0.7663 0.4747,0.2273 1.2075,0.523 2.199,0.8796 1.0515,0.3992 1.8914,0.7611 2.5202,1.0873 0.6281,0.3245 1.1685,0.779 1.6212,1.3652 0.4519,0.5846 0.6776,1.3125 0.6776,2.1851 0,0.8641 -0.2224,1.6208 -0.6662,2.2788 -0.4439,0.6581 -1.0808,1.1685 -1.9101,1.5345 -0.8284,0.3597 -1.8086,0.5452 -2.9316,0.5452 -1.1278,0 -2.1145,-0.1898 -2.9648,-0.5603 z" />
      <path
         id="path37"
         style="fill:#4d4d4b;fill-rule:evenodd"
         d="m 558.1758,417.1045 c -0.8463,-0.4379 -1.4963,-1.0472 -1.9554,-1.8318 -0.4585,-0.783 -0.6881,-1.6914 -0.6881,-2.7328 v -5.4843 c 0,-1.0378 0.2296,-1.9474 0.6881,-2.7345 0.4591,-0.783 1.1091,-1.3924 1.9554,-1.8207 0.8423,-0.4269 1.8224,-0.6411 2.9316,-0.6411 1.0954,0 2.0651,0.2037 2.9097,0.6207 0.8447,0.4127 1.4963,0.9989 1.9555,1.7519 0.4568,0.7542 0.6888,1.6333 0.6888,2.6244 0,0.1473 -0.1127,0.2354 -0.335,0.2654 l -1.889,0.1116 h -0.0876 c -0.1777,0 -0.2654,-0.0374 -0.2654,-0.1116 v -0.1335 c 0,-0.8723 -0.2709,-1.5781 -0.8122,-2.1068 -0.5395,-0.5351 -1.2633,-0.8037 -2.1648,-0.8037 -0.903,0 -1.6284,0.2686 -2.1753,0.8037 -0.5485,0.5287 -0.8245,1.2345 -0.8245,2.1068 v 5.6645 c 0,0.86 0.276,1.5549 0.8245,2.0889 0.5469,0.5311 1.2723,0.798 2.1753,0.798 0.9015,0 1.6253,-0.2653 2.1648,-0.7887 0.5413,-0.5242 0.8122,-1.2244 0.8122,-2.0982 0,-0.076 0.0317,-0.1352 0.0999,-0.19 0.0665,-0.0511 0.1517,-0.0673 0.2531,-0.0539 l 1.8663,0.0873 c 0.2377,0.0312 0.3577,0.0669 0.3577,0.1111 v 0.1099 c 0,1.0115 -0.232,1.8939 -0.6888,2.6561 -0.4592,0.7653 -1.1108,1.3527 -1.9555,1.7657 -0.8446,0.4138 -1.8143,0.6248 -2.9097,0.6248 -1.1092,0 -2.0893,-0.2232 -2.9316,-0.6592 z" />
    </g>
    <path
       id="path40"
       style="fill:#013480;fill-rule:evenodd"
       d="m 539.0915,266.8413 0.007,-0.008 c -3.429,0.005 -8e-4,0.008 -0.007,0.008 z" />
    <g
       id="Layer1003">
      <path
         id="path42"
         style="fill:#013480;fill-rule:evenodd"
         d="m 403.0936,184.824 0.0186,0.005 c 0.2718,0 0.5161,-0.002 0.7449,-0.002 z" />
      <path
         id="path44"
         style="fill:#013480;fill-rule:evenodd"
         d="m 403.3963,184.824 0.0113,0.003 c 0.3391,-0.002 -0.0146,-0.003 -0.0113,-0.003 z" />
      <g
         id="Layer1004">
        <path
           id="path46"
           style="fill:#013480;fill-rule:evenodd"
           d="m 524.7743,257.6627 c -0.0697,-3.5713 -2.577,-6.2753 -5.8867,-6.7464 l -0.8723,-0.1002 c -0.007,0 -1.9231,0.007 -6.9083,0.0151 -0.1136,-0.0219 -0.2273,-0.048 -0.3433,-0.0646 l -0.7822,-0.0897 c -0.8478,0.005 -3.2423,0.0114 -9.2418,0.0154 -0.004,-3.5121 -0.007,-7.7975 -0.0106,-12.423 h 0.017 l -0.0811,-53.2225 h -2.0381 l -6.9765,0.0385 c -3.1524,0.0593 -5.6376,1.975 -6.5018,4.6993 -0.1395,0.4081 -0.2459,0.8341 -0.3084,1.2775 l -0.1087,0.8164 0.0601,45.8459 c 0,0.1681 0.0219,0.3596 0.0219,0.5275 v 0.008 l 0.0219,28.4924 40.0842,-0.0742 v -2.0366 z" />
        <path
           id="path48"
           style="fill:#013480;fill-rule:evenodd"
           d="m 509.8923,250.6659 0.0892,0.011 c 0.9745,-0.005 -0.0949,-0.011 -0.0892,-0.011 z" />
        <path
           id="path50"
           style="fill:#013480;fill-rule:evenodd"
           d="m 359.4561,185.0468 h -4.4829 c -10.6101,0 -19.2093,8.5997 -19.2093,19.2145 v 43.3412 c 0,10.6051 8.5992,19.2048 19.2093,19.2048 h 4.4829 c 10.6091,0 19.2092,-8.5997 19.2092,-19.2048 v -43.3412 c 0,-10.6148 -8.6001,-19.2145 -19.2092,-19.2145 z m 3.6172,65.0151 v 0 c 0,3.0582 -2.4796,5.5338 -5.5377,5.5338 h -0.981 c -3.0566,0 -5.5371,-2.4756 -5.5371,-5.5338 v -46.3281 c 0,-3.0577 2.4805,-5.5349 5.5371,-5.5349 h 0.981 c 3.0581,0 5.5377,2.4772 5.5377,5.5349 z" />
        <path
           id="path52"
           style="fill:#013480;fill-rule:evenodd"
           d="m 388.4055,200.3048 -0.0293,-0.003 c -0.2912,0.002 -0.2239,0.002 0.0293,0.003 z" />
        <path
           id="path54"
           style="fill:#013480;fill-rule:evenodd"
           d="m 390.8689,200.3089 c -0.2061,0 -1.8573,-0.002 -2.4634,-0.004 l 0.0349,0.004 c 0,0 0.8698,0 2.4285,0 z" />
        <path
           id="path56"
           style="fill:#013480;fill-rule:evenodd"
           d="m 424.2226,184.9214 -0.9209,-0.0974 c 0,0 -0.5997,0.001 -1.6862,0.004 -0.0519,0.003 -1.4662,0.009 -7.6191,0.0142 v -0.0179 l -1.8678,0.0179 c -0.1915,0.001 -0.3871,0.001 -0.5786,0.001 v -0.0191 l -10.1126,0.0897 -19.5565,-0.2288 v 0.2191 1.9786 2.8541 l 0.0179,0.0138 0.026,3.9098 c 0.0681,3.4695 2.4463,6.0981 5.6636,6.5546 l 0.7878,0.0867 c 0.4975,-0.002 2.0399,-0.004 5.5363,-0.006 v 0.0137 l 2.4439,-0.003 v 0.003 l 2.3312,-0.004 0.022,34.6961 v 1.6087 0.0345 2.4248 0.0374 6.1208 h 0.0113 l 0.0398,21.5802 h 1.9798 l 6.776,-0.1115 c 3.4704,-0.0657 6.0985,-2.4854 6.5538,-5.7027 l 0.0982,-0.9221 c 0,0 -0.003,-0.8657 -0.007,-2.4306 l 0.007,-0.0178 v -18.7131 l -0.0188,-1.8678 c 0,-0.1911 0.0188,-0.5781 0.0188,-0.5781 l -0.0909,-10.113 0.1468,-26.068 h 4.0466 v -0.011 l 11.7653,-0.0385 v -1.9818 l -0.1104,-6.7762 c -0.0657,-3.4683 -2.4869,-6.0964 -5.7033,-6.5537 z" />
        <path
           id="path58"
           style="fill:#013480;fill-rule:evenodd"
           d="m 470.3007,184.9214 -0.9209,-0.0974 c 0,0 -0.8658,0.001 -2.431,0.005 l -0.007,-0.002 c -0.4869,0.004 -2.4099,0.009 -8.91,0.0149 v -0.0179 l -1.868,0.0179 c -0.1907,0.001 -0.387,0.001 -0.5793,0.001 v -0.0191 l -6.8442,0.2228 h -0.2848 -2.8537 l -0.0138,0.0194 -3.911,0.0244 c -3.4703,0.069 -6.0961,2.4472 -6.5553,5.6637 l -0.0908,0.8515 c 0,0 0,0.8727 0,2.4342 v 0.0171 c 0,0.009 0.005,7.83 0.0121,18.6388 h -0.0121 v 2.4439 l 0.0242,19.8611 v 1.6087 0.0345 2.4248 0.0374 6.1208 h 0.0114 l 0.0397,21.5802 h 1.8874 l -0.0171,0.0264 c 1.0078,-0.003 2.6014,-0.005 5.0576,-0.006 v 0.0137 l 2.4447,-0.002 v 0.002 l 13.7305,-0.0259 h 0.0171 6.1221 v -0.009 l 11.7678,-0.0403 v -1.9818 l -0.112,-6.776 c -0.0657,-3.4679 -2.4869,-6.0965 -5.7033,-6.5533 l -0.9209,-0.0978 c 0,0 -0.8658,0.003 -2.431,0.007 l -0.007,-0.003 c -0.4885,0.003 -2.4124,0.008 -8.91,0.0138 v -0.0179 l -1.868,0.0179 c -0.1907,0.003 -0.387,0.003 -0.5793,0.003 v -0.0207 l -5.0753,0.1664 c -0.003,-3.2311 -0.007,-7.5717 -0.0122,-12.6138 h 0.0179 l -0.0179,-1.8678 c -0.002,-0.1911 -0.002,-0.3867 -0.002,-0.5781 h 0.0195 l -0.043,-4.6859 h 0.3221 0.026 1.7639 0.0284 4.4538 v -0.005 l 8.5637,-0.0304 v -1.4422 l -0.0804,-4.9322 c -0.0487,-2.5235 -1.8111,-4.434 -4.1487,-4.7686 l -0.6735,-0.0714 c 0,0 -0.6305,0.002 -1.7681,0.007 l -0.007,-0.005 c -0.3569,0.003 -1.7583,0.007 -6.483,0.0115 v -0.0138 l -1.3592,0.0138 c -0.1404,0 -0.2815,0 -0.4212,0 v -0.0138 l -0.2328,0.001 0.1137,-20.2325 7.64,-0.0137 h 0.0171 6.1221 v -0.011 l 11.7678,-0.0385 v -1.9818 l -0.112,-6.7762 c -0.0657,-3.4683 -2.4869,-6.0964 -5.7033,-6.5537 z" />
        <path
           id="path60"
           style="fill:#013480;fill-rule:evenodd"
           d="m 466.9309,251.3569 0.0106,0.004 c 0.3391,-0.003 -0.0146,-0.004 -0.0106,-0.004 z" />
        <path
           id="path62"
           style="fill:#013480;fill-rule:evenodd"
           d="m 458.9451,220.5276 0.006,0.002 c 0.2484,-0.001 -0.01,-0.002 -0.006,-0.002 z" />
        <path
           id="path64"
           style="fill:#013480;fill-rule:evenodd"
           d="m 328.5967,185.0468 h -1.979 -2.8545 l -0.0122,0.0194 -3.9117,0.0244 c -3.4696,0.069 -6.0954,2.4472 -6.5538,5.6637 l -0.0933,0.8515 c 0,0 0,0.8727 8e-4,2.4342 l -8e-4,0.0171 c 0,0.009 0.006,7.83 0.0138,18.6388 h -0.0138 l 0.002,2.4439 h -0.002 l 0.003,2.9852 c -1.0614,0.001 -2.224,0.003 -3.4696,0.005 v -0.015 l -1.2455,0.003 v -0.003 l -10.1151,0.0264 h -0.8187 -0.0186 -0.0567 l 0.185,-33.0948 h -0.22 -1.979 -2.8546 l -0.0129,0.0194 -3.911,0.0244 c -3.4687,0.069 -6.0961,2.4472 -6.5544,5.6637 l -0.0934,0.8515 c 0,0 0,0.8727 8e-4,2.4342 l -8e-4,0.0171 c 0,0.009 0.007,7.83 0.0146,18.6388 h -0.0146 l 0.002,2.4439 h -0.002 l 0.026,19.8611 v 1.6087 0.0345 2.4248 0.0374 6.1208 h 0.0113 l 0.0398,21.5802 h 1.9807 l 6.7759,-0.1115 c 3.4696,-0.0657 6.0969,-2.4854 6.5546,-5.7027 l 0.0966,-0.9221 c 0,0 -0.002,-0.8657 -0.005,-2.4306 l 0.005,-0.0178 c 0,-0.01 -0.007,-7.6982 -0.0171,-18.7131 h 0.0171 l -0.0171,-1.8678 c -0.002,-0.1911 -0.002,-0.3867 -0.002,-0.5781 h 0.0195 l -0.026,-2.883 0.1307,-8e-4 V 233.6 l 5.1507,-0.0891 10.4445,0.1135 0.002,1.3765 v 1.6087 0.0345 2.4248 0.0374 6.1208 h 0.0113 l 0.0398,21.5802 h 1.9798 l 6.7776,-0.1115 c 3.468,-0.0657 6.0962,-2.4854 6.5537,-5.7027 l 0.0967,-0.9221 c 0,0 -0.002,-0.8657 -0.005,-2.4306 l 0.005,-0.0178 c 0,-0.01 -0.007,-7.6982 -0.017,-18.7131 h 0.017 l -0.017,-1.8678 c -0.002,-0.1911 -0.002,-0.3867 -0.002,-0.5781 h 0.0187 l -0.0892,-10.113 0.2303,-41.3038 z" />
      </g>
    </g>
    <g
       id="Layer1005">
      <path
         id="path68"
         style="fill:#013480;fill-rule:evenodd"
         d="m 582.8482,289.0082 0.0115,0.002 c 0.3715,-0.001 -0.0156,-0.002 -0.0115,-0.002 z" />
      <path
         id="path70"
         style="fill:#013480;fill-rule:evenodd"
         d="m 529.2403,288.6723 -0.5031,-0.0495 c -0.003,0 -12.4266,0 -19.4754,0.006 v -0.006 l -13.9106,0.0161 h -0.2864 l -16.3888,0.0269 v 1.1741 l 0.0349,4.0185 c 0.0382,2.0512 1.4606,3.6115 3.3673,3.8854 l 0.4901,0.0527 c 0.006,0 5.4454,-0.003 12.4965,-0.006 v 0.006 l 13.9131,0.0122 h 0.2839 v -0.0333 l 23.4107,-0.0211 v -1.1741 l -0.0568,-4.0193 c -0.0405,-2.0605 -1.4694,-3.6148 -3.3754,-3.8886 z" />
      <path
         id="path72"
         style="fill:#013480;fill-rule:evenodd"
         d="m 529.2403,369.726 -0.5031,-0.0544 c -0.003,0 -12.4266,0.006 -19.4754,0.011 v -0.011 l -13.9106,0.0163 -0.2864,0.005 -16.3888,0.0231 v 1.1778 l 0.0349,4.02 c 0.0382,2.0497 1.4606,3.61 3.3673,3.8826 l 0.4901,0.0535 c 0.006,0 5.4454,-0.004 12.4965,-0.005 v 0.005 l 13.9131,0.0126 h 0.2839 v -0.0329 l 23.4107,-0.0214 v -1.1741 l -0.0568,-4.021 c -0.0405,-2.054 -1.4694,-3.6148 -3.3754,-3.887 z" />
      <path
         id="path74"
         style="fill:#013480;fill-rule:evenodd"
         d="m 518.5021,360.7847 h 2.6168 c 5.8405,0 10.5743,-4.7341 10.5743,-10.573 v -31.1536 c 0,-5.8359 -4.7338,-10.5701 -10.5743,-10.5701 h -2.6168 c -5.8372,0 -10.5717,4.7342 -10.5717,10.5701 v 31.1536 c 0,5.8389 4.7345,10.573 10.5717,10.573 z m -1.9108,-42.3692 v 0 c 0,-1.6825 1.3648,-3.0447 3.0459,-3.0447 h 0.7928 c 1.6805,0 3.0452,1.3622 3.0452,3.0447 v 32.7674 c 0,1.6829 -1.3647,3.0502 -3.0452,3.0502 h -0.7928 c -1.6811,0 -3.0459,-1.3673 -3.0459,-3.0502 z" />
      <path
         id="path76"
         style="fill:#013480;fill-rule:evenodd"
         d="m 492.6013,360.7847 c 5.8406,0 10.6651,-5.2307 10.6651,-11.0663 v -31.3799 c 0,-5.8409 -4.8245,-10.1848 -10.6651,-10.1848 h -0.3229 -2.2647 -2.5056 -1.0337 l -3.5434,-0.0231 c -1.811,0.0332 -3.1847,1.2511 -3.4217,2.923 l -0.0494,0.3084 c 0,0 -0.0276,0.3611 -0.0276,1.0114 l -0.039,0.007 v 0.3164 22.1671 0.0118 25.9086 h 10.6204 2.2647 z m -1.6836,-6.8904 v 0 h -0.0674 -3.128 v -3.4594 -27.7729 -0.4689 -4.5732 -3.0248 h 3.128 0.0674 0.4544 c 1.6829,0 2.8999,1.342 2.8999,3.0248 v 32.815 c 0,1.6808 -1.217,3.4594 -2.8999,3.4594 z" />
      <path
         id="path78"
         style="fill:#013480;fill-rule:evenodd"
         d="m 793.5103,368.1806 c -0.0763,-3.906 -2.8172,-6.8623 -6.4377,-7.3772 l -0.9542,-0.1092 c -0.0105,0 -4.8417,0.0171 -18.9463,0.0281 -0.004,-3.8408 -0.007,-8.5271 -0.0106,-13.585 h 0.0195 l -0.0893,-58.2017 h -2.2305 l -7.6281,0.0421 c -3.9068,0.0739 -6.8799,2.7507 -7.3926,6.3716 l -0.1185,0.8921 0.0657,50.1356 c 0,0.1834 0.0243,0.3931 0.0243,0.5765 v 0.009 l 0.0227,31.158 43.8346,-0.0807 v -2.2277 z" />
      <path
         id="path80"
         style="fill:#013480;fill-rule:evenodd"
         d="m 722.2153,288.9356 h -4.8928 c -11.5723,0 -20.9529,9.3827 -20.9529,20.9573 v 47.2774 c 0,11.5683 9.3806,20.9501 20.9529,20.9501 h 4.8928 c 11.5715,0 20.9522,-9.3818 20.9522,-20.9501 v -47.2774 c 0,-11.5746 -9.3807,-20.9573 -20.9522,-20.9573 z m 3.9427,70.9214 v 0 c 0,3.3316 -2.7053,6.0375 -6.0402,6.0375 H 719.05 c -3.339,0 -6.0417,-2.7059 -6.0417,-6.0375 v -50.5385 c 0,-3.3366 2.7027,-6.0393 6.0417,-6.0393 h 1.0678 c 3.3349,0 6.0402,2.7027 6.0402,6.0393 z" />
      <path
         id="path82"
         style="fill:#013480;fill-rule:evenodd"
         d="m 672.5768,288.9356 h -7.3636 -0.2409 -2.1592 -3.1109 l -0.0178,0.019 -4.2648,0.0276 c -3.7844,0.0727 -6.6471,2.6716 -7.1469,6.1792 l -0.1039,0.9255 c 0,0.004 0,0.9558 0,2.6533 v 0.0231 c 0,0.007 0.005,8.5417 0.0138,20.3355 h -0.0138 l 0.002,2.6609 h -0.002 l 0.0268,21.6634 v 1.7546 0.0362 2.65 0.0362 6.6818 h 0.0129 l 0.044,23.5385 h 2.1583 l 7.3918,-0.1201 c 3.7861,-0.0742 6.6528,-2.7125 7.1494,-6.2218 l 0.107,-1.0053 c 0,0 0,-0.9482 -0.005,-2.651 l 0.005,-0.023 c 0,-0.009 -0.005,-8.3932 -0.0177,-20.4113 h 0.0177 l -0.0194,-2.0375 c 0,-0.2106 0,-0.4184 0,-0.6276 h 0.0194 l -0.0989,-11.0344 h 1.9498 l 5.1751,36.0496 c 0.0285,0.4345 0.1007,0.8528 0.1939,1.2678 l 0.9875,6.8146 h 7.633 l 0.0251,-0.0438 c 4.7199,-0.0856 8.5206,-3.9414 8.5206,-8.6841 0,-0.4435 -0.0309,-0.884 -0.095,-1.3083 l 0.013,0.009 -3.1881,-24.7998 -1.5935,-14.0653 c 3.9304,-3.5966 6.2738,-8.8943 6.2738,-15.0609 v -4.9768 c 0,-11.2263 -7.9323,-20.2551 -18.2785,-20.2551 z m 2.4683,28.3087 v 0 c 0,2.6537 -1.6918,4.5154 -4.3484,4.5154 h -0.7173 -0.1006 -4.8587 l -0.002,-2.6609 h 0.002 l -0.0292,-18.2125 h 4.8879 0.1006 0.7173 c 2.6566,0 4.3484,2.4473 4.3484,5.1001 z" />
      <path
         id="path84"
         style="fill:#013480;fill-rule:evenodd"
         d="m 578.3895,321.9135 -0.3091,-0.0333 -0.1249,-0.0287 -0.1648,-0.002 -0.1379,-0.0149 c 0,0 -0.4633,0.001 -1.3039,0.005 l -0.5672,-0.004 -0.0503,-0.001 -3.9816,-0.0269 -4.4181,-0.0483 -0.0957,-15.8467 h 3.3641 0.0397 2.6517 0.0389 6.6941 v -0.0109 l 12.8681,-0.0435 v -2.1676 l -0.1217,-7.4098 c -0.0722,-3.7925 -2.7198,-6.6673 -6.2373,-7.1667 l -1.0078,-0.1063 c 0,0 -0.9476,0.001 -2.6589,0.006 l -0.007,-0.003 c -0.5331,0.005 -2.6364,0.0114 -9.7435,0.0162 v -0.0186 l -2.0415,0.0186 c -0.2101,0.002 -0.4243,0.002 -0.6337,0.002 v -0.0203 l -13.6803,0.3002 0.0106,0.0256 c -3.6822,0.2787 -6.8118,2.9065 -6.8118,6.408 l 0.026,82.7135 h 2.2225 l 7.5979,-0.2523 c 3.8883,-0.071 6.8338,-2.8488 7.344,-6.4552 l 0.1104,-1.0938 c 0,-0.0121 -0.01,-9.9201 -0.0178,-23.7895 h 0.0178 l 0.1655,-12.7273 h 1.3226 0.0301 4.87 v -0.006 l 9.366,-0.0332 v -1.5769 l -0.0891,-5.3951 c -0.0528,-2.7575 -1.98,-4.8473 -4.5359,-5.2129 z" />
      <path
         id="path86"
         style="fill:#013480;fill-rule:evenodd"
         d="m 642.7998,368.1702 0.0284,-0.048 -7.581,-69.5431 v -0.003 c -1.0151,-13.2668 -35.5809,-13.2685 -36.5984,-0.004 v 0.007 l -8.6059,79.5413 h 1.8874 6.4409 l 0.0244,-0.0438 c 3.317,-0.0739 6.092,-2.7449 6.927,-6.3553 l 0.1655,-0.9267 -0.0203,-0.0965 4.341,-36.5587 h 0.7092 v -0.008 l 9.3652,-0.032 v -1.5781 l -0.0884,-5.3934 c -0.0528,-2.7592 -1.9806,-4.849 -4.5382,-5.2134 l -0.3083,-0.0332 -0.125,-0.03 -0.1639,-0.002 -0.138,-0.0138 c 0,0 -0.4641,0.002 -1.303,0.005 l -0.568,-0.005 h -0.0511 l -1.3284,-0.009 1.8452,-15.5474 c 0,-2.0511 1.6034,-3.9198 3.3454,-3.9198 h 1.0256 c 1.7429,0 3.2968,1.8687 3.2968,3.9198 l 2.7539,25.0405 2.1032,17.289 2.6103,21.4389 c 0.0259,0.4346 0.0827,0.8706 0.1598,1.2853 l 0.8244,6.787 h 6.441 l 0.0194,-0.0438 c 3.9799,-0.0856 7.1866,-3.9081 7.1866,-8.6094 0,-0.4422 -0.0307,-0.8731 -0.0827,-1.297 z" />
      <path
         id="path88"
         style="fill:#013480;fill-rule:evenodd"
         d="m 335.3323,288.6711 -0.0325,0.0206 c -3.898,0.0768 -7.1607,2.7377 -8.14,6.3403 l -0.198,0.9259 v 0.0912 l -9.018,64.42 c -0.3586,1.9823 -1.833,3.9613 -3.8818,3.9613 h -0.658 -0.5453 c -1.5612,0 -3.6034,-1.9113 -3.9271,-3.9613 l -8.7552,-63.7696 c -0.0307,-0.4325 -0.082,-0.8508 -0.1719,-1.265 l -0.9592,-6.7634 h -7.5695 l -0.0228,0.0206 c -4.6817,0.0828 -8.4507,3.9025 -8.4507,8.6034 0,0.4361 0.0324,0.8674 0.0965,1.2917 l -0.0552,0.0451 8.88,69.5383 v 0.004 c 1.1945,13.2645 41.8345,13.271 43.0289,0.001 v -0.005 l 10.1694,-79.4991 h -2.2201 z" />
      <path
         id="path90"
         style="fill:#013480;fill-rule:evenodd"
         d="m 368.7151,288.5805 h -2.2209 l -7.5987,0.1068 c -3.8875,0.0734 -6.833,2.7928 -7.3457,6.4259 l -0.1079,0.9558 c 0,0.0113 0.009,10.384 0.0186,23.8108 h -0.0186 l 0.0397,26.4908 c 0,0.1837 0,0.3602 0,0.5452 l 0.0471,31.2091 h 2.2193 l 7.5987,-0.0706 c 3.8899,-0.0738 6.8353,-2.7754 7.3473,-6.4077 l 0.1054,-0.9363 c 0,-0.0122 -0.007,-10.3645 -0.0161,-23.7945 h 0.0161 l 0.0236,-26.4973 c 0,-0.1838 0,-0.355 0,-0.5387 h -0.0608 z" />
      <path
         id="path92"
         style="fill:#013480;fill-rule:evenodd"
         d="m 464.8163,367.7904 0.0269,-0.0483 -7.5794,-69.5423 v -0.003 c -1.0159,-13.2669 -35.5817,-13.268 -36.5977,-0.004 v 0.007 l -6.7329,62.2247 -0.2865,-0.0341 c -0.0105,0 -4.8417,0.0166 -18.9472,0.0288 -0.003,-3.8408 -0.007,-8.5279 -0.01,-13.5862 h 0.0203 L 394.62,288.6317 h -2.2297 l -7.6296,0.0417 c -3.9062,0.0743 -6.8799,2.7524 -7.3919,6.3717 l -0.1177,0.8925 0.0641,50.1368 c 0,0.1822 0.0252,0.3927 0.0252,0.5764 v 0.008 l 0.0235,31.1581 41.3752,-0.0751 h 1.6496 l 0.002,-0.003 0.8065,-0.002 v -0.1115 c 2.964,-0.4422 5.3739,-2.9629 6.1415,-6.2831 l 0.1664,-0.9262 -0.0202,-0.0966 4.3401,-36.5591 h 0.7092 v -0.008 l 9.3653,-0.0315 v -1.5795 l -0.0885,-5.393 c -0.0527,-2.7584 -1.9798,-4.849 -4.5365,-5.2129 l -0.3083,-0.0329 -0.1259,-0.0303 -0.1638,-0.001 -0.1381,-0.0138 c 0,0 -0.4632,0.002 -1.3047,0.005 l -0.5663,-0.005 h -0.0512 l -1.3291,-0.009 1.8468,-15.5477 c 0,-2.0508 1.6025,-3.9199 3.3438,-3.9199 h 1.0265 c 1.742,0 3.2959,1.8691 3.2959,3.9199 l 2.7547,25.0405 2.1032,17.2885 2.6094,21.4394 c 0.026,0.4349 0.0836,0.8711 0.1599,1.2857 l 0.826,6.787 h 6.4401 l 0.0196,-0.0442 c 3.9799,-0.086 7.1857,-3.9082 7.1857,-8.6091 0,-0.4426 -0.0307,-0.8734 -0.082,-1.2978 z" />
    </g>
  </g>
</svg>
